<?xml version="1.0" encoding="UTF-8"?>
<svg width="85px" height="235px" viewBox="0 0 85 235" version="1.1" xmlns="http://www.w3.org/2000/svg" xmlns:xlink="http://www.w3.org/1999/xlink">
    <!-- Generator: Sketch 46.2 (44496) - http://www.bohemiancoding.com/sketch -->
    <title>Group</title>
    <desc>Created with Sketch.</desc>
    <defs></defs>
    <g id="Page-1" stroke="none" stroke-width="1" fill="none" fill-rule="evenodd">
        <g id="Set-Up-3" transform="translate(-352.000000, -279.000000)">
            <g id="Group" transform="translate(347.000000, 280.000000)">
                <path d="M43.375,0.05859375 C109.130859,84.6445312 92.9414062,159.070312 61.7226562,193.914062 C48.1252291,209.09037 27.9917457,219.706087 8.07226562,225.79834" id="Path-4" stroke="#636161" stroke-width="2"></path>
                <g id="icon/triangle/line/mint-copy" transform="translate(12.149449, 224.735113) rotate(68.000000) translate(-12.149449, -224.735113) translate(-0.350551, 217.735113)" fill-rule="nonzero" fill="#636161">
                    <path d="M18.406673,8.01548444 C18.4276157,7.97923755 18.4493638,7.94379615 18.4654735,7.90513281 C18.4759449,7.88016273 18.4811805,7.85358168 18.4896381,7.82820886 C18.5013177,7.79115648 18.5154137,7.75531234 18.5234686,7.71745448 C18.5363563,7.65221008 18.5436057,7.58535471 18.5436057,7.51809659 C18.539981,7.43593698 18.5351481,7.37673373 18.5234686,7.31873871 C18.5134,7.26638209 18.496082,7.21684468 18.4775558,7.16771001 C18.4429199,7.07467633 18.4135197,7.02151423 18.3804947,6.97076859 C18.336193,6.90270499 18.2935022,6.85034837 18.2455758,6.80282467 L7.22893834,-4.21421549 C6.83545823,-4.6076956 6.19831849,-4.6076956 5.80524113,-4.21421549 C5.41216377,-3.82073539 5.41176103,-3.18359565 5.80524113,-2.79051829 L15.1057898,6.51043311 C15.1057898,6.51043311 15.6746648,7.18387125 15.6747981,7.51714008 C15.6749315,7.85040891 15.1065953,8.5241491 15.1065953,8.5241491 L5.80443565,17.8251005 C5.41095554,18.2181779 5.41095554,18.8557203 5.80443565,19.2487977 C6.00097433,19.4453364 6.25872997,19.5436057 6.51648562,19.5436057 C6.77424127,19.5436057 7.03159417,19.4453364 7.22853559,19.2487977 L18.2487977,8.22974382 C18.3092092,8.16127748 18.3438451,8.12221139 18.3732454,8.07831238 C18.3857304,8.05857796 18.3949935,8.03602435 18.406673,8.01548444 Z" id="Shape" transform="translate(12.026466, 7.517140) rotate(-270.000000) translate(-12.026466, -7.517140) "></path>
                </g>
            </g>
        </g>
    </g>
</svg>