<?xml version="1.0" encoding="UTF-8"?>
<svg width="25px" height="14px" viewBox="0 0 25 14" version="1.1" xmlns="http://www.w3.org/2000/svg" xmlns:xlink="http://www.w3.org/1999/xlink">
    <!-- Generator: Sketch 45.1 (43504) - http://www.bohemiancoding.com/sketch -->
    <title>icon/triangle/line/grey copy</title>
    <desc>Created with Sketch.</desc>
    <defs></defs>
    <g id="Symbol" stroke="none" stroke-width="1" fill="none" fill-rule="evenodd">
        <g id="icon/triangle/line/grey-copy" fill-rule="nonzero" fill="#646464">
            <path d="M18.5295935,7.57641751 C18.5505362,7.54017062 18.5722843,7.50472922 18.588394,7.46606588 C18.5988653,7.4410958 18.604101,7.41451475 18.6125586,7.38914193 C18.6242382,7.35208955 18.6383342,7.31624541 18.646389,7.27838755 C18.6592768,7.21314315 18.6665262,7.14628778 18.6665262,7.07902966 C18.6629015,6.99687005 18.6580686,6.9376668 18.646389,6.87967178 C18.6363205,6.82731516 18.6190025,6.77777775 18.6004763,6.72864308 C18.5658404,6.6356094 18.5364401,6.5824473 18.5034152,6.53170166 C18.4591135,6.46363806 18.4164227,6.41128144 18.3684962,6.36375774 L7.35185881,-4.65328242 C6.95837871,-5.04676253 6.32123897,-5.04676253 5.92816161,-4.65328242 C5.53508425,-4.25980232 5.53468151,-3.62266258 5.92816161,-3.22958522 L15.2287103,6.07136618 C15.2287103,6.07136618 15.7975853,6.74480432 15.7977186,7.07807315 C15.7978519,7.41134198 15.2295158,8.08508217 15.2295158,8.08508217 L5.92735612,17.3860336 C5.53387602,17.7791109 5.53387602,18.4166534 5.92735612,18.8097308 C6.1238948,19.0062695 6.38165045,19.1045388 6.6394061,19.1045388 C6.89716174,19.1045388 7.15451465,19.0062695 7.35145607,18.8097308 L18.3717182,7.79067689 C18.4321297,7.72221055 18.4667656,7.68314446 18.4961658,7.63924545 C18.5086509,7.61951103 18.517914,7.59695741 18.5295935,7.57641751 Z" id="Shape" transform="translate(12.149386, 7.078073) rotate(-90.000000) translate(-12.149386, -7.078073) "></path>
        </g>
    </g>
</svg>