<?xml version="1.0" encoding="UTF-8"?>
<svg width="25px" height="25px" viewBox="0 0 25 25" version="1.1" xmlns="http://www.w3.org/2000/svg" xmlns:xlink="http://www.w3.org/1999/xlink">
    <!-- Generator: Sketch 45 (43475) - http://www.bohemiancoding.com/sketch -->
    <title>icon/close/dark grey </title>
    <desc>Created with Sketch.</desc>
    <defs></defs>
    <g id="Symbol" stroke="none" stroke-width="1" fill="none" fill-rule="evenodd">
        <g id="icon/close/dark-grey-" fill-rule="nonzero" fill="#646464">
            <g id="noun_1014483_cc">
                <path d="M24.6153846,0.91068917 C24.2948718,0.585443038 23.7820513,0.585443038 23.4935897,0.91068917 L12.6602564,11.8714838 L1.53846154,0.552918425 C1.21794872,0.227672293 0.705128205,0.227672293 0.416666667,0.552918425 C0.0961538462,0.878164557 0.0961538462,1.39855837 0.416666667,1.69127989 L11.5384615,13.0098453 L0.384615385,24.3284107 C0.0641025641,24.6536568 0.0641025641,25.1740506 0.384615385,25.4667722 C0.544871795,25.6293952 0.737179487,25.6944444 0.961538462,25.6944444 C1.18589744,25.6944444 1.37820513,25.6293952 1.53846154,25.4667722 L12.6923077,14.1482068 L23.4935897,25.1090014 C23.6538462,25.2716245 23.8461538,25.3366737 24.0705128,25.3366737 C24.2948718,25.3366737 24.4871795,25.2716245 24.6474359,25.1090014 C24.9679487,24.7837553 24.9679487,24.2633615 24.6474359,23.9706399 L13.8141026,13.0098453 L24.6153846,2.04905063 C24.9038462,1.7238045 24.9038462,1.20341069 24.6153846,0.91068917 Z" id="Shape"></path>
            </g>
        </g>
    </g>
</svg>