<?xml version="1.0" encoding="UTF-8" standalone="no"?>
<svg width="21px" height="22px" viewBox="0 0 21 22" version="1.1" xmlns="http://www.w3.org/2000/svg" xmlns:xlink="http://www.w3.org/1999/xlink">
    <!-- Generator: Sketch 43.2 (39069) - http://www.bohemiancoding.com/sketch -->
    <title>button/plus/solid/large</title>
    <desc>Created with Sketch.</desc>
    <defs></defs>
    <g id="-" stroke="none" stroke-width="1" fill="none" fill-rule="evenodd">
        <g id="button/plus/solid/large" fill-rule="nonzero">
            <g id="Group-7" transform="translate(0.000000, 0.963470)">
                <g id="Plus">
                    <path d="M6.44809308,0.828105492 C5.20133965,1.35533266 4.08174955,2.10890865 3.11973139,3.06951102 C2.15771323,4.0301134 1.40302656,5.14805581 0.875022342,6.3929744 C0.32766718,7.68205862 0.0512251794,9.05119303 0.0512251794,10.4617327 C0.0512251794,11.8722724 0.32766718,13.2414068 0.875022342,14.530491 C1.40302656,15.7754096 2.15771323,16.893352 3.11973139,17.8539544 C4.08174955,18.8145568 5.20133965,19.5681328 6.44809308,20.0953599 C7.73907722,20.6419096 9.11022955,20.9179447 10.5228482,20.9179447 C11.9354668,20.9179447 13.3066191,20.6419096 14.5976033,20.0953599 C15.8443567,19.5681328 16.9639468,18.8145568 17.925965,17.8539544 C18.8879831,16.893352 19.6426698,15.7754096 20.170674,14.530491 C20.7180292,13.2414068 20.9944712,11.8722724 20.9944712,10.4617327 C20.9944712,9.05119303 20.7180292,7.68205862 20.170674,6.3929744 C19.6426698,5.14805581 18.8879831,4.0301134 17.925965,3.06951102 C16.9639468,2.10890865 15.8443567,1.35533266 14.5976033,0.828105492 C13.3066191,0.284316219 11.9354668,0.00552070328 10.5228482,0.00552070328 C9.11022955,0.00552070328 7.73907722,0.281555867 6.44809308,0.828105492 Z" id="Shape" fill="#48CFAD"></path>
                    <polygon id="Shape" fill="#FFFFFF" points="17.9867822 11.0358859 11.0978475 11.0358859 11.0978475 17.9146821 9.94784881 17.9146821 9.94784881 11.0358859 3.05891415 11.0358859 3.05891415 9.88757958 9.94784881 9.88757958 9.94784881 3.00878329 11.0978475 3.00878329 11.0978475 9.88757958 17.9867822 9.88757958"></polygon>
                </g>
            </g>
        </g>
    </g>
</svg>