<?xml version="1.0" encoding="UTF-8" standalone="no"?>
<svg width="13px" height="13px" viewBox="0 0 13 13" version="1.1" xmlns="http://www.w3.org/2000/svg" xmlns:xlink="http://www.w3.org/1999/xlink">
    <!-- Generator: Sketch 44.1 (41455) - http://www.bohemiancoding.com/sketch -->
    <title>button/arrow/small</title>
    <desc>Created with Sketch.</desc>
    <defs></defs>
    <g id="Symbol" stroke="none" stroke-width="1" fill="none" fill-rule="evenodd">
        <g id="button/arrow/small">
            <g id="Group">
                <path d="M5.73227778,3.76003333 C5.70902222,3.73721111 5.66308889,3.73721111 5.61715556,3.76003333 L5.044,4.3563 L7.13035556,6.44222222 C7.15317778,6.46504444 7.15317778,6.51083333 7.13035556,6.55705556 L5.04385556,8.64384444 L5.61701111,9.23938889 C5.66294444,9.26221111 5.70887778,9.26221111 5.73213333,9.23938889 L8.41446667,6.55705556 C8.43714444,6.51097778 8.43714444,6.46518889 8.41446667,6.44222222 L5.73227778,3.76003333 Z" id="Shape"></path>
                <path d="M10.7432,2.25653333 C9.6424,1.1768 8.1616,0.5 6.48906667,0.5 C4.83866667,0.5 3.33586667,1.1768 2.2568,2.25653333 C1.17746667,3.33586667 0.500133333,4.8384 0.500133333,6.48893333 C0.500133333,8.16093333 1.17746667,9.6424 2.2568,10.7425333 C3.33586667,11.8225333 4.83866667,12.5 6.48906667,12.5 C8.1616,12.5 9.6424,11.8225333 10.7432,10.7425333 C11.8225333,9.6424 12.4998667,8.16093333 12.4998667,6.48893333 C12.4998667,4.8384 11.8225333,3.33586667 10.7432,2.25653333 Z M8.2672,6.55266667 L5.7912,9.02866667 C5.76973333,9.04973333 5.72733333,9.04973333 5.68493333,9.02866667 L5.15586667,8.47893333 L7.08186667,6.55266667 C7.10293333,6.51013333 7.10293333,6.46786667 7.08186667,6.44666667 L5.15586667,4.52106667 L5.68493333,3.97066667 C5.72733333,3.9496 5.76973333,3.9496 5.7912,3.97066667 L8.2672,6.44666667 C8.28813333,6.46773333 8.28813333,6.51013333 8.2672,6.55266667 Z" id="Shape" fill="#48CFAD" fill-rule="nonzero"></path>
            </g>
        </g>
    </g>
</svg>