<?xml version="1.0" encoding="UTF-8"?>
<svg width="15px" height="16px" viewBox="0 0 15 16" version="1.1" xmlns="http://www.w3.org/2000/svg" xmlns:xlink="http://www.w3.org/1999/xlink">
    <!-- Generator: Sketch 46.1 (44463) - http://www.bohemiancoding.com/sketch -->
    <title>icon/generic/close/grey</title>
    <desc>Created with Sketch.</desc>
    <defs></defs>
    <g id="NEW-STUFF" stroke="none" stroke-width="1" fill="none" fill-rule="evenodd">
        <g id="In-Game---1920-" transform="translate(-1102.000000, -130.000000)" fill="#D8D8D8">
            <g id="Cureent-Match-Card" transform="translate(231.000000, 114.000000)">
                <g id="icon/generic/close/grey" transform="translate(871.000000, 16.000000)">
                    <g id="noun_1014483_cc">
                        <path d="M14.7692308,0.546413502 C14.5769231,0.351265823 14.2692308,0.351265823 14.0961538,0.546413502 L7.59615385,7.1228903 L0.923076923,0.331751055 C0.730769231,0.136603376 0.423076923,0.136603376 0.25,0.331751055 C0.0576923077,0.526898734 0.0576923077,0.839135021 0.25,1.01476793 L6.92307692,7.80590717 L0.230769231,14.5970464 C0.0384615385,14.7921941 0.0384615385,15.1044304 0.230769231,15.2800633 C0.326923077,15.3776371 0.442307692,15.4166667 0.576923077,15.4166667 C0.711538462,15.4166667 0.826923077,15.3776371 0.923076923,15.2800633 L7.61538462,8.48892405 L14.0961538,15.0654008 C14.1923077,15.1629747 14.3076923,15.2020042 14.4423077,15.2020042 C14.5769231,15.2020042 14.6923077,15.1629747 14.7884615,15.0654008 C14.9807692,14.8702532 14.9807692,14.5580169 14.7884615,14.382384 L8.28846154,7.80590717 L14.7692308,1.22943038 C14.9423077,1.0342827 14.9423077,0.722046414 14.7692308,0.546413502 Z" id="Shape" fill-rule="nonzero"></path>
                    </g>
                </g>
            </g>
        </g>
    </g>
</svg>