<?xml version="1.0" encoding="UTF-8"?>
<svg width="17px" height="17px" viewBox="0 0 17 17" version="1.1" xmlns="http://www.w3.org/2000/svg" xmlns:xlink="http://www.w3.org/1999/xlink">
    <!-- Generator: Sketch 45.1 (43504) - http://www.bohemiancoding.com/sketch -->
    <title>button/plus/line/small</title>
    <desc>Created with Sketch.</desc>
    <defs></defs>
    <g id="Symbol" stroke="none" stroke-width="1" fill="none" fill-rule="evenodd">
        <g id="Input/Dropdown/Open" transform="translate(-170.000000, -140.000000)">
            <g id="Item-1" transform="translate(0.000000, 132.000000)">
                <g id="button/plus/line/small" transform="translate(171.000000, 8.000000)">
                    <g id="Group-7" transform="translate(0.000000, 0.963470)">
                        <g id="Plus" fill-rule="nonzero">
                            <path d="M4.60919136,0.591503923 C3.7186532,0.968094754 2.91894598,1.50636332 2.23179015,2.19250787 C1.54463432,2.87865243 1.00557242,3.67718272 0.628426544,4.56641029 C0.237458571,5.48718473 0.0399999991,6.46513788 0.0399999991,7.47266623 C0.0399999991,8.48019458 0.237458571,9.45814773 0.628426544,10.3789222 C1.00557242,11.2681497 1.54463432,12.06668 2.23179015,12.7528246 C2.91894598,13.4389691 3.7186532,13.9772377 4.60919136,14.3538285 C5.53132289,14.7442211 6.5107174,14.9413891 7.51973071,14.9413891 C8.52874401,14.9413891 9.50813853,14.7442211 10.4302701,14.3538285 C11.3208082,13.9772377 12.1205154,13.4389691 12.8076713,12.7528246 C13.4948271,12.06668 14.033889,11.2681497 14.4110349,10.3789222 C14.8020028,9.45814773 14.9994614,8.48019458 14.9994614,7.47266623 C14.9994614,6.46513788 14.8020028,5.48718473 14.4110349,4.56641029 C14.033889,3.67718272 13.4948271,2.87865243 12.8076713,2.19250787 C12.1205154,1.50636332 11.3208082,0.968094754 10.4302701,0.591503923 C9.50813853,0.203083014 8.52874401,0.00394335949 7.51973071,0.00394335949 C6.5107174,0.00394335949 5.53132289,0.201111334 4.60919136,0.591503923 Z" id="Shape" stroke="#48CFAD" stroke-width="0.75"></path>
                            <polygon id="Shape" fill="#48CFAD" points="12.8477016 7.88277561 7.92703395 7.88277561 7.92703395 12.7962015 7.10560629 12.7962015 7.10560629 7.88277561 2.18493868 7.88277561 2.18493868 7.06255684 7.10560629 7.06255684 7.10560629 2.14913092 7.92703395 2.14913092 7.92703395 7.06255684 12.8477016 7.06255684"></polygon>
                        </g>
                    </g>
                </g>
            </g>
        </g>
    </g>
</svg>