<?xml version="1.0" encoding="UTF-8"?>
<svg width="66px" height="63px" viewBox="0 0 66 63" version="1.1" xmlns="http://www.w3.org/2000/svg" xmlns:xlink="http://www.w3.org/1999/xlink">
    <!-- Generator: Sketch 45.2 (43514) - http://www.bohemiancoding.com/sketch -->
    <title>pursuit 002 copy</title>
    <desc>Created with Sketch.</desc>
    <defs></defs>
    <g id="Page-1" stroke="none" stroke-width="1" fill="none" fill-rule="evenodd">
        <g id="Playbook-C--Compare-Open-Copy-43" transform="translate(-783.000000, -338.000000)" fill-rule="nonzero">
            <g id="pursuit-002-copy" transform="translate(783.386719, 338.000000)">
                <g id="Layer_1" fill="#F36F54">
                    <ellipse id="Oval" cx="32.5" cy="31.5" rx="32.5" ry="31.5"></ellipse>
                </g>
                <g id="Layer_4" transform="translate(13.600000, 13.600000)" fill="#EA583F">
                    <path d="M3.2,25.67 L0.05,12.23 L3.62,2.78 L11.81,0.68 L20.63,7.19 L26.09,1.31 L32.81,0.47 L48.77,11.81 C49.19,13.7 49.4,15.8 49.4,17.9 C49.4,30.29 42.05,41.21 31.55,46.25" id="Shape"></path>
                </g>
                <g id="Layer_6" transform="translate(10.500000, 12.600000)" fill="#A1CF69">
                    <g id="Group">
                        <path d="M19.53,13.86 C19.53,22.89 16.17,27.93 10.29,27.93 C5.04,27.93 1.68,23.1 1.47,14.28 C1.47,5.46 5.25,0.42 10.71,0.42 C16.38,0.42 19.53,5.25 19.53,13.86 Z M5.04,14.28 C5.04,21.21 7.14,25.2 10.5,25.2 C14.28,25.2 15.96,21 15.96,14.07 C15.96,7.56 14.28,3.15 10.5,3.15 C7.35,3.15 5.04,6.93 5.04,14.28 Z" id="Shape"></path>
                        <path d="M40.53,13.86 C40.53,22.89 37.17,27.93 31.29,27.93 C26.04,27.93 22.68,23.1 22.47,14.28 C22.47,5.46 26.25,0.42 31.71,0.42 C37.38,0.42 40.53,5.25 40.53,13.86 Z M26.04,14.28 C26.04,21.21 28.14,25.2 31.5,25.2 C35.28,25.2 36.96,21 36.96,14.07 C36.96,7.56 35.28,3.15 31.5,3.15 C28.35,3.15 26.04,6.93 26.04,14.28 Z" id="Shape"></path>
                    </g>
                </g>
            </g>
        </g>
    </g>
</svg>