<?xml version="1.0" encoding="UTF-8"?>
<svg width="50px" height="50px" viewBox="0 0 50 50" version="1.1" xmlns="http://www.w3.org/2000/svg" xmlns:xlink="http://www.w3.org/1999/xlink">
    <!-- Generator: Sketch 45.2 (43514) - http://www.bohemiancoding.com/sketch -->
    <title>clip</title>
    <desc>Created with Sketch.</desc>
    <defs></defs>
    <g id="Symbol" stroke="none" stroke-width="1" fill="none" fill-rule="evenodd">
        <g id="Clips--Empty-State" transform="translate(-227.000000, -26.000000)">
            <g id="clip" transform="translate(227.000000, 26.000000)">
                <circle id="Oval" fill="#FFCC09" fill-rule="nonzero" cx="24.8138958" cy="25.0206782" r="24.8138958"></circle>
                <path d="M49.1315136,20.388751 C49.4623656,21.8775848 49.6277916,23.5318445 49.6277916,25.0206782 C49.6277916,37.4276261 40.5293631,47.6840364 28.6186931,49.5037221 L12.9032258,39.0818859 L12.9032258,21.3813069 L15.2191894,16.5839537 L34.0777502,10.6286187 L49.1315136,20.388751 Z" id="Shape" fill="#DBB327" fill-rule="nonzero"></path>
                <g id="Group" transform="translate(11.579818, 9.698627)" fill-rule="nonzero" fill="#FFFFFF">
                    <g id="Shape">
                        <path d="M22.4979322,0.827129859 C15.2191894,2.81224152 7.94044665,4.63192721 0.661703888,6.61703888 C0.330851944,6.78246485 0.165425972,7.11331679 0.165425972,7.44416873 L1.32340778,11.579818 C1.32340778,17.369727 1.32340778,23.325062 1.32340778,29.1149711 C1.32340778,29.445823 1.65425972,29.7766749 1.98511166,29.7766749 L24.4830438,29.7766749 C24.8138958,29.7766749 25.1447477,29.445823 25.1447477,29.1149711 L25.1447477,11.745244 C25.1447477,11.4143921 24.8138958,11.0835401 24.4830438,11.0835401 L5.62448304,11.0835401 L23.9867659,6.28618693 C24.3176179,6.12076096 24.4830438,5.78990902 24.4830438,5.45905707 L23.325062,1.32340778 C22.9942101,1.1579818 22.8287841,0.827129859 22.4979322,0.827129859 L22.4979322,0.827129859 Z"></path>
                    </g>
                </g>
                <g id="Group" transform="translate(11.579818, 9.698627)" fill-rule="nonzero" fill="#37BC9B">
                    <g id="Shape">
                        <path d="M22.4979322,0.827129859 C15.2191894,2.81224152 7.94044665,4.63192721 0.661703888,6.61703888 C0.330851944,6.78246485 0.165425972,7.11331679 0.165425972,7.44416873 L1.32340778,11.579818 C1.32340778,17.369727 1.32340778,23.325062 1.32340778,29.1149711 C1.32340778,29.445823 1.65425972,29.7766749 1.98511166,29.7766749 L24.4830438,29.7766749 C24.8138958,29.7766749 25.1447477,29.445823 25.1447477,29.1149711 L25.1447477,11.745244 C25.1447477,11.4143921 24.8138958,11.0835401 24.4830438,11.0835401 L5.62448304,11.0835401 L23.9867659,6.28618693 C24.3176179,6.12076096 24.4830438,5.78990902 24.4830438,5.45905707 L23.325062,1.32340778 C22.9942101,1.1579818 22.8287841,0.827129859 22.4979322,0.827129859 L22.4979322,0.827129859 Z M22.1670802,2.31596361 L22.9942101,5.2936311 L21.5053763,5.62448304 L19.0239868,3.14309347 L22.1670802,2.31596361 Z M14.0612076,4.46650124 L16.5425972,6.94789082 L14.2266336,7.60959471 L11.745244,5.12820513 L14.0612076,4.46650124 Z M6.78246485,6.4516129 L9.26385443,8.93300248 L7.11331679,9.59470637 L4.63192721,7.11331679 L6.78246485,6.4516129 Z M7.44416873,12.4069479 L9.76013234,12.4069479 L7.94044665,16.0463193 L5.62448304,16.0463193 L7.44416873,12.4069479 Z M14.8883375,12.4069479 L17.2043011,12.4069479 L15.3846154,16.0463193 L13.0686518,16.0463193 L14.8883375,12.4069479 Z M22.3325062,12.4069479 L23.82134,12.4069479 L23.82134,16.0463193 L20.5128205,16.0463193 L22.3325062,12.4069479 Z"></path>
                    </g>
                </g>
                <path d="M14.2266336,28.1637717 L34.9048801,28.1637717" id="Shape" stroke="#FFFFFF" stroke-width="0.25"></path>
                <path d="M14.2266336,32.133995 L34.9048801,32.133995" id="Shape" stroke="#FFFFFF" stroke-width="0.25"></path>
                <path d="M14.2266336,36.2696443 L34.9048801,36.2696443" id="Shape" stroke="#FFFFFF" stroke-width="0.25"></path>
            </g>
        </g>
    </g>
</svg>